<?xml version="1.0" encoding="utf-8"?>
<!-- Generator: Adobe Illustrator 27.0.0, SVG Export Plug-In . SVG Version: 6.00 Build 0)  -->
<svg version="1.1" id="图层_1" xmlns="http://www.w3.org/2000/svg" xmlns:xlink="http://www.w3.org/1999/xlink" x="0px" y="0px"
	 viewBox="0 0 360 80" style="enable-background:new 0 0 360 80;" xml:space="preserve">
<style type="text/css">
	.st0{fill:#FF0000;}
	.st1{fill:#FFFFFF;}
	.st2{fill:#4D6BFF;}
	.st3{fill:#FFD677;}
	.st4{fill:#FFBA53;}
	.st5{fill:#FFF9EB;}
	.st6{fill:#FFE899;}
	.st7{fill:#FFB955;}
	.st8{fill:#FF9956;}
	.st9{fill:#213547;}@keyframes bounce {
  from,
  20%,
  53%,
  to {
    animation-timing-function: cubic-bezier(0.215, 0.61, 0.355, 1);
    transform: translate3d(0, 0, 0);
  }

  40%,
  43% {
    animation-timing-function: cubic-bezier(0.755, 0.05, 0.855, 0.06);
    transform: translate3d(0, -30px, 0) scaleY(1.8);
  }

  70% {
    animation-timing-function: cubic-bezier(0.755, 0.05, 0.855, 0.06);
    transform: translate3d(0, -15px, 0) scaleY(1.55);
  }

  80% {
    transition-timing-function: cubic-bezier(0.215, 0.61, 0.355, 1);
    transform: translate3d(0, 0, 0) scaleY(0.95);
  }

  90% {
    transform: translate3d(0, -4px, 0) scaleY(1.02);
  }
}
.g2 {
  animation-duration: 1s;
  animation-fill-mode: both;
  animation-name: bounce;
  transform-origin: center bottom;
}
</style>
<g>
	<g>
		<path class="st0" d="M160.4,56.1l-2.1,15.5h-7.1l1.8-12h-4.2l-1.8,12h-7.1l2.1-14.5l-1.1-1H160.4z"/>
		<path class="st0" d="M208,56.1h6.7l-8.5,15.5h-7.1l-3.9-14.1l-1.1-1.4h7.4l2.1,8.8L208,56.1z"/>
		<path class="st0" d="M180.9,59.6h-3.8l-0.3,1.4h-7.1l1.1-4.9h17.3L186,69.9l1.4,1.8h-16.6c-0.7,0-1.2-0.2-1.6-0.7
			s-0.5-1.1-0.5-1.8l1.1-6.7h10.6L180.9,59.6z M176.1,66l-0.4,2.1h3.5l0.4-2.1H176.1z"/>
		<path class="st0" d="M232.7,62.5h-12.6l0.5-3.5h12.6l0.7-4.9h-14l0.5-3.5h21l-2.6,18.4c-0.1,0.7-0.4,1.3-1,1.8s-1.2,0.7-1.9,0.7
			h-18.5l0.5-3.5h13.9L232.7,62.5z"/>
		<path class="st9" d="M281.1,59.6h-11.3l-1.4,8.5h9.9l1.8-1.4l-0.7,4.9h-18.4l2.5-15.5h18L281.1,59.6z"/>
		<path class="st9" d="M308.5,56.1l-2.1,15.5h-7.1l1.8-12h-4.2l-1.8,12h-7.1l2.1-14.5l-1.1-1H308.5z"/>
	</g>
	<g>
		<g>
			<path class="st2" d="M32.7,40c0,20.6,16.7,37.3,37.3,37.3c20.6,0,37.4-16.7,37.4-37.3l0,0c0-20.6-16.7-37.3-37.3-37.3
				S32.7,19.4,32.7,40z"/>
		</g>
		<g>
			<path class="st1" d="M62.1,47.7c0.1,0,0.2,0.1,0.2,0.2l6.9,14.6c0.3,0.6,1.1,0.6,1.3,0l16.8-38.8c0.3-0.7-0.4-1.4-1.1-1.1
				L47.4,39.6c-0.6,0.2-0.5,1,0,1.3L62.1,47.7L62.1,47.7z"/>
		</g>
	</g>
	<g>
		<g>
			<path class="st9" d="M138.3,18.1l-1,2.6h26.5v4.7h-0.2l0.2,0.1c-2,4.9-5,8.8-8.9,11.7c1.5,0.6,3,1,4.7,1.2
				c1.7,0.3,3.5,0.5,5.4,0.6v5c-3.1,0-6-0.3-8.7-0.8c-2.6-0.5-5.1-1.4-7.4-2.6c-2.1,0.9-4.3,1.6-6.7,2.2c-2.4,0.6-5,1-7.7,1.3v-5.5
				c1.7-0.2,3.2-0.5,4.7-0.9c1.5-0.3,2.9-0.7,4.2-1.2c-2.6-2.4-5.1-5.6-7.5-9.4h7.1c1.8,2.7,3.9,4.9,6.1,6.6c1.6-1,3-2.2,4.3-3.6
				c1.2-1.4,2.4-3,3.3-4.9l0.1-0.1l-21.2,0.1l-7.2,18.3l-7,0.3l10.2-26.1h-3.4h-6.4l3.8-11.4h6.4l-2.1,6.3h3.6l2.5-6.3l7-0.3
				l-2.6,6.5h16.4l-1.8-5h6.9l3.6,10.2h-3.2h-3.6H138.3z"/>
		</g>
		<g>
			<path class="st9" d="M189.8,42.6l-16.4,1.5v-5.1l4.1-0.4V27.9h-4.1v-5.1h4.1v-11h-4.1V6.6h4.1h7.2h5.1v5.1h-5.1v11h5.1v5.1h-5.1
				V38l5.1-0.5V42.6z M211.8,37.7c0,0.5,0.2,0.8,0.5,1.1c0.3,0.3,0.7,0.5,1.1,0.5h5.7l-3.4,4.8h-3.9h-1.5c-0.8,0-1.5-0.1-2.2-0.4
				c-0.7-0.3-1.3-0.7-1.8-1.2c-0.5-0.5-0.9-1.1-1.2-1.8c-0.3-0.7-0.4-1.4-0.4-2.2v-2.4l-5.7,8.2h-7.5l9.3-13.4V15h7.5v15.7l-1.2,1.7
				h4.8V37.7z M211.8,31.4V12.8c0-0.4-0.2-0.8-0.5-1.1c-0.3-0.3-0.7-0.5-1.2-0.5h-11.3v20.2h-7.2V6.6h21.7c0.8,0,1.5,0.1,2.2,0.4
				c0.7,0.3,1.3,0.7,1.8,1.2c0.5,0.5,0.9,1.1,1.2,1.8c0.3,0.7,0.5,1.4,0.5,2.2v19.1H211.8z"/>
		</g>
		<g>
			<path class="st9" d="M265.2,29.4h6.7v4.9h-6.7v4c0,0.8-0.1,1.5-0.4,2.2c-0.3,0.7-0.7,1.3-1.2,1.8c-0.5,0.5-1.1,0.9-1.8,1.2
				c-0.7,0.3-1.4,0.4-2.2,0.4h-11.2l1.9-4.9h6.1c0.4,0,0.8-0.2,1.1-0.5c0.3-0.3,0.5-0.7,0.5-1.1v-3.2h-31.7v-4.9H258v-2.6h-24.2
				c-0.8,0-1.5-0.1-2.2-0.4c-0.7-0.3-1.3-0.7-1.8-1.2c-0.5-0.5-0.9-1.1-1.2-1.8c-0.3-0.7-0.4-1.4-0.4-2.2v-1.9v-4.7v-3.1V7.2V6.6
				h42.1v1.8v5c0,0.8-0.1,1.5-0.4,2.2c-0.3,0.7-0.7,1.3-1.2,1.8c-0.5,0.5-1.1,0.9-1.8,1.2c-0.7,0.3-1.4,0.4-2.2,0.4h-29.1v1.3
				c0,0.4,0.2,0.8,0.5,1.1c0.3,0.3,0.7,0.5,1.2,0.5h33.2l-2.3,4.7h-2.6V29.4z M240.1,35.7l4.2,6.6h-7.5l-4.2-6.6H240.1z M235.3,14.4
				h26c0.4,0,0.8-0.2,1.1-0.5c0.3-0.3,0.5-0.7,0.5-1.1v-1.5h-27.6V14.4z"/>
		</g>
		<g>
			<path class="st9" d="M302.6,23.9h1.2v4.4h-1.2V39c0,0.4,0,0.7-0.1,1s-0.2,0.6-0.3,0.9c-0.3,0.6-0.7,1.1-1.1,1.5
				c-0.4,0.5-0.9,0.8-1.6,1.1c-0.3,0.1-0.6,0.2-0.9,0.3c-0.3,0.1-0.6,0.1-1,0.1h-4.6l2.1-3.8h0.2c0.4,0,0.8-0.2,1.1-0.5
				c0.3-0.3,0.4-0.7,0.4-1.2V28.3h-8.2V44h-5.7V28.3h-1.8v-4.4h1.8V10.4l1.8,0.1l1.1-3.6h6.7l-1,3.5l7.4,0.1c1,0,1.9,0.4,2.6,1.1
				c0.7,0.7,1.1,1.6,1.1,2.6V23.9z M288.7,23.9h8.2v-7.8c0-0.6-0.2-1-0.5-1.3c-0.3-0.3-0.8-0.5-1.3-0.5h-6.3V23.9z M296.1,22.5h-5
				l-1.8-6.6h5L296.1,22.5z M296.1,37.2h-5l-1.8-6.6h5L296.1,37.2z M302.8,44.1l2.7-10.6V18.3h19.2v20.1c0,0.3,0.1,0.6,0.4,0.9
				c0.2,0.2,0.5,0.3,0.9,0.3h1.3l-2.2,4.3h-2.2c-0.7,0-1.3-0.1-1.9-0.3c-0.3-0.1-0.6-0.2-0.8-0.4c-0.2-0.2-0.5-0.4-0.7-0.6
				c-0.4-0.4-0.7-0.9-1-1.5c-0.2-0.5-0.4-1.1-0.4-1.7v-16h-6.1v10l-2.7,10.6H302.8z M327.2,15.5h-23v-5.2l7.8,0.1V6.5h7.4v3.7
				l7.8,0.1V15.5z"/>
		</g>
	</g>
</g>
<g class="g2">
	<path class="st3" d="M251,67.2c0.1-0.1,0.2-0.1,0.3-0.1c0,0,0.1,0,0.1,0.1l0.8,1.2c0,0,0,0,0,0l1.4,0.3c0.1,0,0.2,0.2,0.2,0.3
		c0,0,0,0.1,0,0.1l-1,1.1c0,0,0,0,0,0l0.1,1.5c0,0.1-0.1,0.2-0.2,0.2c0,0-0.1,0-0.1,0l-1.3-0.6c0,0,0,0,0,0l-1.3,0.6
		c-0.1,0-0.2,0-0.3-0.1c0,0,0-0.1,0-0.1l0.1-1.5c0,0,0,0,0,0l-1-1.1c-0.1-0.1-0.1-0.2,0-0.3c0,0,0.1,0,0.1,0l1.4-0.3c0,0,0,0,0,0
		L251,67.2z"/>
	<path class="st4" d="M249.7,71.9L249.7,71.9c-0.1,0-0.1-0.1-0.1-0.2l0.1-1.5c0,0,0,0,0,0l-1-1.1c-0.1-0.1-0.1-0.1,0-0.2l0,0
		l2.6,0.8L249.7,71.9z"/>
	<path class="st5" d="M248.7,68.9c0-0.1,0.1-0.1,0.2-0.1l1.4-0.3c0,0,0,0,0,0l0.8-1.2c0-0.1,0.1-0.1,0.2-0.1v2.7L248.7,68.9z"/>
	<path class="st6" d="M248.7,68.9c0-0.1,0.1-0.1,0.2-0.1l1.4-0.3c0,0,0,0,0,0l0.8-1.2c0-0.1,0.1-0.1,0.2-0.1l-0.3,1.9
		c0,0.2-0.2,0.3-0.4,0.3c0,0,0,0,0,0L248.7,68.9z"/>
	<path class="st7" d="M252.8,71.9l-1.6-2.2l2.6-0.8l0,0c0,0.1,0,0.2,0,0.2l-1,1.1c0,0,0,0,0,0l0.1,1.5
		C252.9,71.8,252.9,71.9,252.8,71.9z"/>
	<path class="st3" d="M253.8,68.9l-2.6,0.8v-2.7l0,0c0.1,0,0.2,0,0.2,0.1l0.8,1.2c0,0,0,0,0,0l1.4,0.3
		C253.7,68.8,253.8,68.8,253.8,68.9z"/>
	<path class="st8" d="M249.7,71.9l1.6-2.2l1.6,2.2c-0.1,0-0.1,0.1-0.2,0l-1.3-0.6c0,0,0,0,0,0l-1.3,0.6
		C249.8,72,249.7,72,249.7,71.9z"/>
</g>
</svg>
